<mxfile host="app.diagrams.net" modified="2024-04-25T09:33:50.552Z" agent="Mozilla/5.0 (Windows NT 10.0; Win64; x64) AppleWebKit/537.36 (KHTML, like Gecko) Chrome/124.0.0.0 Safari/537.36 Edg/124.0.0.0" etag="w7a9YDm8VdmY0uMsL5Vc" version="24.3.0" type="github">
  <diagram name="第 1 页" id="PcfP6gb2JtYn-d_xGvrk">
    <mxGraphModel dx="3673" dy="2857" grid="1" gridSize="10" guides="1" tooltips="1" connect="1" arrows="1" fold="1" page="1" pageScale="1" pageWidth="980" pageHeight="1390" math="1" shadow="0">
      <root>
        <mxCell id="0" />
        <mxCell id="1" parent="0" />
        <mxCell id="-JhSQXZ96FYG4y2Jt_jo-10" value="" style="ellipse;whiteSpace=wrap;html=1;fillColor=#dae8fc;strokeColor=#6c8ebf;fontFamily=Times New Roman;fontSize=23;strokeWidth=2;" vertex="1" parent="1">
          <mxGeometry x="-140" y="950" width="300" height="270" as="geometry" />
        </mxCell>
        <mxCell id="-JhSQXZ96FYG4y2Jt_jo-11" value="" style="rounded=0;whiteSpace=wrap;html=1;fillColor=#FFF2CC;strokeColor=#FFF2CC;fontFamily=Times New Roman;fontSize=23;strokeWidth=2;" vertex="1" parent="1">
          <mxGeometry x="120" y="60" width="420" height="730" as="geometry" />
        </mxCell>
        <mxCell id="-JhSQXZ96FYG4y2Jt_jo-12" value="&lt;font style=&quot;font-size: 23px;&quot;&gt;Gate&lt;/font&gt;" style="rounded=1;whiteSpace=wrap;html=1;fontFamily=Times New Roman;fontSize=23;dashed=1;strokeWidth=2;" vertex="1" parent="1">
          <mxGeometry x="260" y="90" width="120" height="60" as="geometry" />
        </mxCell>
        <mxCell id="-JhSQXZ96FYG4y2Jt_jo-13" value="&lt;font style=&quot;font-size: 23px;&quot;&gt;$$\mathbf{m}_\tau \in \mathbb{R}^{F&#39;}$$&lt;/font&gt;" style="text;html=1;align=center;verticalAlign=middle;resizable=0;points=[];autosize=1;strokeColor=none;fillColor=none;fontFamily=Times New Roman;fontSize=23;strokeWidth=2;" vertex="1" parent="1">
          <mxGeometry x="-200" y="100" width="430" height="40" as="geometry" />
        </mxCell>
        <mxCell id="-JhSQXZ96FYG4y2Jt_jo-14" value="" style="endArrow=classic;html=1;rounded=0;exitX=0.5;exitY=1;exitDx=0;exitDy=0;fontFamily=Times New Roman;fontSize=23;strokeWidth=2;" edge="1" parent="1" source="-JhSQXZ96FYG4y2Jt_jo-12">
          <mxGeometry width="50" height="50" relative="1" as="geometry">
            <mxPoint x="330" y="240" as="sourcePoint" />
            <mxPoint x="320" y="200" as="targetPoint" />
          </mxGeometry>
        </mxCell>
        <mxCell id="-JhSQXZ96FYG4y2Jt_jo-15" value="&lt;font style=&quot;font-size: 23px;&quot;&gt;$$\mathbf{\alpha}(\mathbf{m}_\tau) \in \mathbb{R}^{F}$$&lt;/font&gt;" style="text;html=1;align=center;verticalAlign=middle;resizable=0;points=[];autosize=1;strokeColor=none;fillColor=none;fontFamily=Times New Roman;fontSize=23;strokeWidth=2;" vertex="1" parent="1">
          <mxGeometry x="25" y="200" width="590" height="40" as="geometry" />
        </mxCell>
        <mxCell id="-JhSQXZ96FYG4y2Jt_jo-16" value="&lt;font style=&quot;font-size: 23px;&quot;&gt;$$\mathbf{x}_{u,t}\in \mathbb{R}^{F}&lt;br style=&quot;font-size: 23px;&quot;&gt;$$&lt;/font&gt;" style="text;html=1;align=center;verticalAlign=middle;resizable=0;points=[];autosize=1;strokeColor=none;fillColor=none;fontFamily=Times New Roman;fontSize=23;strokeWidth=2;" vertex="1" parent="1">
          <mxGeometry x="-225" y="270" width="400" height="70" as="geometry" />
        </mxCell>
        <mxCell id="-JhSQXZ96FYG4y2Jt_jo-17" value="" style="endArrow=classic;html=1;rounded=0;exitX=0.5;exitY=1;exitDx=0;exitDy=0;fontFamily=Times New Roman;fontSize=23;entryX=0.5;entryY=0;entryDx=0;entryDy=0;strokeWidth=2;" edge="1" parent="1" target="-JhSQXZ96FYG4y2Jt_jo-18">
          <mxGeometry width="50" height="50" relative="1" as="geometry">
            <mxPoint x="319.79" y="240" as="sourcePoint" />
            <mxPoint x="319.79" y="290" as="targetPoint" />
          </mxGeometry>
        </mxCell>
        <mxCell id="-JhSQXZ96FYG4y2Jt_jo-18" value="" style="shape=sumEllipse;perimeter=ellipsePerimeter;whiteSpace=wrap;html=1;backgroundOutline=1;fontFamily=Times New Roman;fontSize=23;strokeWidth=2;" vertex="1" parent="1">
          <mxGeometry x="310" y="295" width="20" height="20" as="geometry" />
        </mxCell>
        <mxCell id="-JhSQXZ96FYG4y2Jt_jo-19" value="&lt;font style=&quot;font-size: 23px;&quot;&gt;$$\tilde{\mathbf{x}}_{u,t} =\alpha(\mathbf{m}_\tau) \circ \mathbf{x}_{u,t}&lt;br style=&quot;font-size: 23px;&quot;&gt;\in \mathbb{R}^{F}&lt;br style=&quot;font-size: 23px;&quot;&gt;$$&lt;/font&gt;" style="text;html=1;align=center;verticalAlign=middle;resizable=0;points=[];autosize=1;strokeColor=none;fillColor=none;fontFamily=Times New Roman;fontSize=23;strokeWidth=2;" vertex="1" parent="1">
          <mxGeometry x="-50" y="355" width="740" height="100" as="geometry" />
        </mxCell>
        <mxCell id="-JhSQXZ96FYG4y2Jt_jo-20" value="" style="endArrow=classic;html=1;rounded=0;exitX=0.5;exitY=1;exitDx=0;exitDy=0;fontFamily=Times New Roman;fontSize=23;strokeWidth=2;" edge="1" parent="1" source="-JhSQXZ96FYG4y2Jt_jo-18">
          <mxGeometry width="50" height="50" relative="1" as="geometry">
            <mxPoint x="319.71000000000004" y="320" as="sourcePoint" />
            <mxPoint x="319.71000000000004" y="370" as="targetPoint" />
          </mxGeometry>
        </mxCell>
        <mxCell id="-JhSQXZ96FYG4y2Jt_jo-21" value="" style="endArrow=classic;html=1;rounded=0;exitX=0.5;exitY=1;exitDx=0;exitDy=0;fontFamily=Times New Roman;fontSize=23;entryX=0.5;entryY=0;entryDx=0;entryDy=0;strokeWidth=2;" edge="1" parent="1" target="-JhSQXZ96FYG4y2Jt_jo-22">
          <mxGeometry width="50" height="50" relative="1" as="geometry">
            <mxPoint x="319.71000000000004" y="640" as="sourcePoint" />
            <mxPoint x="319.71000000000004" y="690" as="targetPoint" />
          </mxGeometry>
        </mxCell>
        <mxCell id="-JhSQXZ96FYG4y2Jt_jo-22" value="&lt;font style=&quot;font-size: 23px;&quot;&gt;Feature layer&lt;/font&gt;" style="rounded=1;whiteSpace=wrap;html=1;fontFamily=Times New Roman;fontSize=23;dashed=1;strokeWidth=2;" vertex="1" parent="1">
          <mxGeometry x="240" y="700" width="160" height="60" as="geometry" />
        </mxCell>
        <mxCell id="-JhSQXZ96FYG4y2Jt_jo-23" value="" style="endArrow=classic;html=1;rounded=0;exitX=0.5;exitY=1;exitDx=0;exitDy=0;fontFamily=Times New Roman;fontSize=23;strokeWidth=2;" edge="1" parent="1">
          <mxGeometry width="50" height="50" relative="1" as="geometry">
            <mxPoint x="319.70000000000005" y="760" as="sourcePoint" />
            <mxPoint x="319.70000000000005" y="810" as="targetPoint" />
          </mxGeometry>
        </mxCell>
        <mxCell id="-JhSQXZ96FYG4y2Jt_jo-24" value="" style="endArrow=classic;html=1;rounded=0;entryX=0;entryY=0.5;entryDx=0;entryDy=0;fontFamily=Times New Roman;fontSize=23;strokeWidth=2;" edge="1" parent="1">
          <mxGeometry width="50" height="50" relative="1" as="geometry">
            <mxPoint x="90" y="120" as="sourcePoint" />
            <mxPoint x="260" y="119.57" as="targetPoint" />
          </mxGeometry>
        </mxCell>
        <mxCell id="-JhSQXZ96FYG4y2Jt_jo-25" value="" style="endArrow=classic;html=1;rounded=0;entryX=0;entryY=0.5;entryDx=0;entryDy=0;fontFamily=Times New Roman;fontSize=23;strokeWidth=2;" edge="1" parent="1" target="-JhSQXZ96FYG4y2Jt_jo-18">
          <mxGeometry width="50" height="50" relative="1" as="geometry">
            <mxPoint x="90" y="305" as="sourcePoint" />
            <mxPoint x="305" y="304.57" as="targetPoint" />
          </mxGeometry>
        </mxCell>
        <mxCell id="-JhSQXZ96FYG4y2Jt_jo-26" value="&lt;font style=&quot;font-size: 23px;&quot;&gt;Input \( \mathbf{m}_{\tau} \)&lt;/font&gt;" style="rounded=1;whiteSpace=wrap;html=1;fontFamily=Times New Roman;fontSize=23;strokeWidth=2;" vertex="1" parent="1">
          <mxGeometry x="-470" y="1020" width="120" height="60" as="geometry" />
        </mxCell>
        <mxCell id="-JhSQXZ96FYG4y2Jt_jo-27" value="" style="endArrow=classic;html=1;rounded=0;fontFamily=Times New Roman;fontSize=23;exitX=1;exitY=0.5;exitDx=0;exitDy=0;strokeWidth=2;" edge="1" parent="1" source="-JhSQXZ96FYG4y2Jt_jo-26">
          <mxGeometry width="50" height="50" relative="1" as="geometry">
            <mxPoint x="-290" y="1049.23" as="sourcePoint" />
            <mxPoint x="-70" y="1049.23" as="targetPoint" />
          </mxGeometry>
        </mxCell>
        <mxCell id="-JhSQXZ96FYG4y2Jt_jo-28" value="&lt;font style=&quot;font-size: 23px;&quot;&gt;query function = \(\alpha(\mathbf{m}_\tau)\)&lt;/font&gt;" style="text;html=1;align=center;verticalAlign=middle;resizable=0;points=[];autosize=1;strokeColor=none;fillColor=none;fontFamily=Times New Roman;fontSize=23;strokeWidth=2;" vertex="1" parent="1">
          <mxGeometry x="-455" y="990" width="440" height="40" as="geometry" />
        </mxCell>
        <mxCell id="-JhSQXZ96FYG4y2Jt_jo-29" value="&lt;font style=&quot;font-size: 23px;&quot;&gt;key&lt;/font&gt;" style="rounded=1;whiteSpace=wrap;html=1;fillColor=#d80073;fontColor=#ffffff;strokeColor=#A50040;fontFamily=Times New Roman;fontSize=23;strokeWidth=2;" vertex="1" parent="1">
          <mxGeometry x="-70" y="1020" width="40" height="60" as="geometry" />
        </mxCell>
        <mxCell id="-JhSQXZ96FYG4y2Jt_jo-30" value="" style="ellipse;whiteSpace=wrap;html=1;aspect=fixed;fillColor=#d5e8d4;strokeColor=#82b366;fontFamily=Times New Roman;fontSize=23;strokeWidth=2;" vertex="1" parent="1">
          <mxGeometry x="-10" y="1010" width="40" height="40" as="geometry" />
        </mxCell>
        <mxCell id="-JhSQXZ96FYG4y2Jt_jo-31" value="" style="ellipse;whiteSpace=wrap;html=1;aspect=fixed;fillColor=#f8cecc;strokeColor=#b85450;fontFamily=Times New Roman;fontSize=23;strokeWidth=2;" vertex="1" parent="1">
          <mxGeometry x="-20" y="1065" width="40" height="40" as="geometry" />
        </mxCell>
        <mxCell id="-JhSQXZ96FYG4y2Jt_jo-32" value="" style="ellipse;whiteSpace=wrap;html=1;aspect=fixed;fillColor=#ffe6cc;strokeColor=#d79b00;fontFamily=Times New Roman;fontSize=23;strokeWidth=2;" vertex="1" parent="1">
          <mxGeometry x="-60" y="1100" width="40" height="40" as="geometry" />
        </mxCell>
        <mxCell id="-JhSQXZ96FYG4y2Jt_jo-33" value="" style="ellipse;whiteSpace=wrap;html=1;aspect=fixed;fillColor=#f5f5f5;strokeColor=#666666;fontColor=#333333;fontFamily=Times New Roman;fontSize=23;strokeWidth=2;" vertex="1" parent="1">
          <mxGeometry x="70" y="1020" width="40" height="40" as="geometry" />
        </mxCell>
        <mxCell id="-JhSQXZ96FYG4y2Jt_jo-34" value="" style="ellipse;whiteSpace=wrap;html=1;aspect=fixed;fillColor=#f5f5f5;strokeColor=#666666;fontColor=#333333;fontFamily=Times New Roman;fontSize=23;strokeWidth=2;" vertex="1" parent="1">
          <mxGeometry x="100" y="1100" width="40" height="40" as="geometry" />
        </mxCell>
        <mxCell id="-JhSQXZ96FYG4y2Jt_jo-35" value="" style="ellipse;whiteSpace=wrap;html=1;aspect=fixed;fillColor=#f5f5f5;strokeColor=#666666;fontColor=#333333;fontFamily=Times New Roman;fontSize=23;strokeWidth=2;" vertex="1" parent="1">
          <mxGeometry x="50" y="1140" width="40" height="40" as="geometry" />
        </mxCell>
        <mxCell id="-JhSQXZ96FYG4y2Jt_jo-36" value="" style="ellipse;whiteSpace=wrap;html=1;aspect=fixed;fillColor=#f5f5f5;strokeColor=#666666;fontColor=#333333;fontFamily=Times New Roman;fontSize=23;strokeWidth=2;" vertex="1" parent="1">
          <mxGeometry x="-40" y="1160" width="40" height="40" as="geometry" />
        </mxCell>
        <mxCell id="-JhSQXZ96FYG4y2Jt_jo-37" value="" style="ellipse;whiteSpace=wrap;html=1;aspect=fixed;fillColor=#f5f5f5;strokeColor=#666666;fontColor=#333333;fontFamily=Times New Roman;fontSize=23;strokeWidth=2;" vertex="1" parent="1">
          <mxGeometry x="-120" y="1090" width="40" height="40" as="geometry" />
        </mxCell>
        <mxCell id="-JhSQXZ96FYG4y2Jt_jo-38" value="" style="endArrow=classic;html=1;rounded=0;fontFamily=Times New Roman;fontSize=23;exitX=0.247;exitY=0.059;exitDx=0;exitDy=0;exitPerimeter=0;entryX=0;entryY=0.5;entryDx=0;entryDy=0;strokeWidth=2;" edge="1" parent="1" source="-JhSQXZ96FYG4y2Jt_jo-30" target="-JhSQXZ96FYG4y2Jt_jo-61">
          <mxGeometry width="50" height="50" relative="1" as="geometry">
            <mxPoint x="8.079999999999927" y="710.7599999999998" as="sourcePoint" />
            <mxPoint x="320" y="460" as="targetPoint" />
            <Array as="points">
              <mxPoint y="629" />
              <mxPoint y="500" />
              <mxPoint x="80" y="500" />
            </Array>
          </mxGeometry>
        </mxCell>
        <mxCell id="-JhSQXZ96FYG4y2Jt_jo-40" value="" style="endArrow=none;html=1;rounded=0;fontFamily=Times New Roman;fontSize=23;strokeWidth=2;" edge="1" parent="1">
          <mxGeometry width="50" height="50" relative="1" as="geometry">
            <mxPoint x="-25" y="1105" as="sourcePoint" />
            <mxPoint y="890" as="targetPoint" />
            <Array as="points">
              <mxPoint x="-25" y="890" />
            </Array>
          </mxGeometry>
        </mxCell>
        <mxCell id="-JhSQXZ96FYG4y2Jt_jo-46" value="" style="rounded=0;whiteSpace=wrap;html=1;fontFamily=Times New Roman;fontSize=23;strokeWidth=2;" vertex="1" parent="1">
          <mxGeometry x="-370" y="290" width="260" height="60" as="geometry" />
        </mxCell>
        <mxCell id="-JhSQXZ96FYG4y2Jt_jo-47" value="" style="rounded=0;whiteSpace=wrap;html=1;fontFamily=Times New Roman;fontSize=23;strokeWidth=2;" vertex="1" parent="1">
          <mxGeometry x="-390" y="310" width="260" height="60" as="geometry" />
        </mxCell>
        <mxCell id="-JhSQXZ96FYG4y2Jt_jo-48" value="&lt;font style=&quot;font-size: 23px;&quot;&gt;$$X_{u} = \mathbf{x}_{u,1}, \dots, \mathbf{x}_{u,\tau}$$&lt;/font&gt;" style="rounded=0;whiteSpace=wrap;html=1;fontFamily=Times New Roman;fontSize=23;strokeWidth=2;" vertex="1" parent="1">
          <mxGeometry x="-410" y="330" width="260" height="60" as="geometry" />
        </mxCell>
        <mxCell id="-JhSQXZ96FYG4y2Jt_jo-49" value="" style="endArrow=classic;html=1;rounded=0;dashed=1;fontFamily=Times New Roman;fontSize=23;strokeWidth=2;" edge="1" parent="1">
          <mxGeometry width="50" height="50" relative="1" as="geometry">
            <mxPoint x="-430" y="328.5" as="sourcePoint" />
            <mxPoint x="-380" y="278.5" as="targetPoint" />
          </mxGeometry>
        </mxCell>
        <mxCell id="-JhSQXZ96FYG4y2Jt_jo-50" value="&lt;font style=&quot;font-size: 23px;&quot;&gt;stock&lt;/font&gt;" style="text;html=1;align=center;verticalAlign=middle;resizable=0;points=[];autosize=1;strokeColor=none;fillColor=none;fontFamily=Times New Roman;fontSize=23;strokeWidth=2;" vertex="1" parent="1">
          <mxGeometry x="-470" y="260" width="70" height="40" as="geometry" />
        </mxCell>
        <mxCell id="-JhSQXZ96FYG4y2Jt_jo-51" value="" style="endArrow=classic;html=1;rounded=0;dashed=1;fontFamily=Times New Roman;fontSize=23;strokeWidth=2;" edge="1" parent="1">
          <mxGeometry width="50" height="50" relative="1" as="geometry">
            <mxPoint x="-490" y="405" as="sourcePoint" />
            <mxPoint x="-90" y="405" as="targetPoint" />
          </mxGeometry>
        </mxCell>
        <mxCell id="-JhSQXZ96FYG4y2Jt_jo-52" value="&lt;font style=&quot;font-size: 23px;&quot;&gt;time&lt;/font&gt;" style="text;html=1;align=center;verticalAlign=middle;resizable=0;points=[];autosize=1;strokeColor=none;fillColor=none;fontFamily=Times New Roman;fontSize=23;strokeWidth=2;" vertex="1" parent="1">
          <mxGeometry x="-145" y="415" width="60" height="40" as="geometry" />
        </mxCell>
        <mxCell id="-JhSQXZ96FYG4y2Jt_jo-54" value="&lt;font style=&quot;font-size: 23px;&quot;&gt;Market-Guided Gating&lt;/font&gt;" style="rounded=1;whiteSpace=wrap;html=1;fontFamily=Times New Roman;fontSize=23;dashed=1;fillColor=#fff2cc;strokeColor=#d6b656;strokeWidth=2;" vertex="1" parent="1">
          <mxGeometry x="160" y="-20" width="350" height="60" as="geometry" />
        </mxCell>
        <mxCell id="-JhSQXZ96FYG4y2Jt_jo-55" value="&lt;font style=&quot;font-size: 23px;&quot;&gt;Prompt Pool&lt;/font&gt;" style="rounded=1;whiteSpace=wrap;html=1;fontFamily=Times New Roman;fontSize=23;dashed=1;fillColor=#dae8fc;strokeColor=#6c8ebf;strokeWidth=2;" vertex="1" parent="1">
          <mxGeometry x="-172" y="1250" width="350" height="60" as="geometry" />
        </mxCell>
        <mxCell id="-JhSQXZ96FYG4y2Jt_jo-56" value="" style="endArrow=none;html=1;rounded=0;fontFamily=Times New Roman;fontSize=23;strokeWidth=2;" edge="1" parent="1">
          <mxGeometry width="50" height="50" relative="1" as="geometry">
            <mxPoint x="-15" y="1070" as="sourcePoint" />
            <mxPoint x="-15" y="890" as="targetPoint" />
            <Array as="points" />
          </mxGeometry>
        </mxCell>
        <mxCell id="-JhSQXZ96FYG4y2Jt_jo-57" value="&lt;font style=&quot;font-size: 23px;&quot;&gt;\(N\) selected prompts&lt;br&gt;each prompt with shape (\(L_p\), \(F\))&lt;br&gt;&lt;/font&gt;" style="text;html=1;align=center;verticalAlign=middle;resizable=0;points=[];autosize=1;strokeColor=none;fillColor=none;fontFamily=Times New Roman;fontSize=23;strokeWidth=2;" vertex="1" parent="1">
          <mxGeometry x="-380" y="790" width="380" height="70" as="geometry" />
        </mxCell>
        <mxCell id="-JhSQXZ96FYG4y2Jt_jo-58" value="" style="endArrow=classic;html=1;rounded=0;exitX=0.5;exitY=1;exitDx=0;exitDy=0;fontFamily=Times New Roman;fontSize=23;strokeWidth=2;" edge="1" parent="1">
          <mxGeometry width="50" height="50" relative="1" as="geometry">
            <mxPoint x="319.57000000000005" y="510" as="sourcePoint" />
            <mxPoint x="319.57000000000005" y="560" as="targetPoint" />
          </mxGeometry>
        </mxCell>
        <mxCell id="-JhSQXZ96FYG4y2Jt_jo-59" value="&lt;font style=&quot;font-size: 23px;&quot;&gt;$$\tilde{X}^p_{u} = [P_{s_1}, \dots, P_{s_N}; \tilde{X}_{u}]&lt;br style=&quot;font-size: 23px;&quot;&gt;\in \mathbb{R}^{(L_p * N + \tau) \times F}&lt;br style=&quot;font-size: 23px;&quot;&gt;$$&lt;/font&gt;" style="text;html=1;align=center;verticalAlign=middle;resizable=0;points=[];autosize=1;strokeColor=none;fillColor=none;fontFamily=Times New Roman;fontSize=23;strokeWidth=2;" vertex="1" parent="1">
          <mxGeometry x="20" y="550" width="610" height="100" as="geometry" />
        </mxCell>
        <mxCell id="-JhSQXZ96FYG4y2Jt_jo-60" value="&lt;font style=&quot;font-size: 23px;&quot;&gt;\( Y^p_{u} = \left[\|_{i \in \{1, \dots, N\}} \text{LN}(f(P_{s_i}) + \mathbf{p}_i); \|_{t \in [1, \tau]} \text{LN}(f(\tilde{\mathbf{x}}_{u,t}) + \mathbf{p}_{t+N})\right]\in \mathbb{R}^{(L_p * N + \tau) \times D}\)&lt;br&gt;LN is a linear layer&lt;br&gt;&lt;/font&gt;" style="text;html=1;align=center;verticalAlign=middle;resizable=0;points=[];autosize=1;strokeColor=none;fillColor=none;fontFamily=Times New Roman;fontSize=23;" vertex="1" parent="1">
          <mxGeometry x="-585" y="820" width="1990" height="70" as="geometry" />
        </mxCell>
        <mxCell id="-JhSQXZ96FYG4y2Jt_jo-61" value="$$\|$$" style="ellipse;whiteSpace=wrap;html=1;aspect=fixed;strokeWidth=2;" vertex="1" parent="1">
          <mxGeometry x="310" y="490" width="20" height="20" as="geometry" />
        </mxCell>
        <mxCell id="-JhSQXZ96FYG4y2Jt_jo-62" value="" style="endArrow=classic;html=1;rounded=0;exitX=0.5;exitY=1;exitDx=0;exitDy=0;fontFamily=Times New Roman;fontSize=23;strokeWidth=2;" edge="1" parent="1">
          <mxGeometry width="50" height="50" relative="1" as="geometry">
            <mxPoint x="319.64000000000004" y="440" as="sourcePoint" />
            <mxPoint x="319.64000000000004" y="490" as="targetPoint" />
          </mxGeometry>
        </mxCell>
        <mxCell id="-JhSQXZ96FYG4y2Jt_jo-63" value="" style="shape=flexArrow;endArrow=classic;html=1;rounded=0;strokeWidth=2;" edge="1" parent="1">
          <mxGeometry width="50" height="50" relative="1" as="geometry">
            <mxPoint x="840" y="840" as="sourcePoint" />
            <mxPoint x="920" y="840" as="targetPoint" />
          </mxGeometry>
        </mxCell>
        <mxCell id="-JhSQXZ96FYG4y2Jt_jo-64" value="&lt;font face=&quot;Times New Roman&quot; style=&quot;font-size: 23px;&quot;&gt;Down-Streaming Model&lt;/font&gt;" style="rounded=1;whiteSpace=wrap;html=1;fillColor=#d5e8d4;strokeColor=#82b366;fontSize=23;strokeWidth=2;" vertex="1" parent="1">
          <mxGeometry x="960" y="800" width="280" height="80" as="geometry" />
        </mxCell>
      </root>
    </mxGraphModel>
  </diagram>
</mxfile>
